<?xml version="1.0" encoding="UTF-8" standalone="no"?>
<!DOCTYPE svg PUBLIC "-//W3C//DTD SVG 1.1//EN" "http://www.w3.org/Graphics/SVG/1.1/DTD/svg11.dtd">
<svg width="250px" height="250px" viewBox="0 0 466 466" version="1.1" xmlns="http://www.w3.org/2000/svg" xmlns:xlink="http://www.w3.org/1999/xlink" xml:space="preserve" xmlns:serif="http://www.serif.com/" style="fill-rule:evenodd;clip-rule:evenodd;stroke-linejoin:round;stroke-miterlimit:2;">
    <circle cx="233" cy="233" r="227.175"/>
    <path d="M232.289,11.651C111.181,12.04 11.65,111.808 11.65,233C11.65,354.429 111.571,454.35 233,454.35C172.285,454.35 122.325,404.39 122.325,343.675C122.325,283.198 171.896,233.39 232.289,233.002L233.711,232.998C294.104,232.61 343.675,182.802 343.675,122.325C343.675,61.61 293.715,11.65 233,11.65L232.289,11.651Z" style="fill:white;"/>
    <circle cx="233" cy="343.675" r="29.125" style="fill:white;"/>
    <g>
        <path d="M230.04,346.539L235.143,346.539C235.328,346.539 235.485,346.415 235.494,346.261L236.885,326.249C236.891,326.167 236.855,326.089 236.788,326.031C236.722,325.971 236.631,325.937 236.534,325.937L228.646,325.937C228.549,325.937 228.458,325.971 228.392,326.031C228.328,326.089 228.292,326.17 228.298,326.249L229.689,346.261C229.698,346.415 229.853,346.539 230.04,346.539Z" style="fill-rule:nonzero;"/>
        <path d="M228.461,357.059C228.461,356.321 228.567,355.698 228.779,355.187C228.991,354.676 229.284,354.264 229.662,353.953C230.037,353.638 230.482,353.411 230.993,353.269C231.501,353.13 232.046,353.057 232.629,353.057C233.18,353.057 233.7,353.13 234.196,353.269C234.689,353.411 235.125,353.638 235.503,353.953C235.878,354.264 236.177,354.676 236.398,355.187C236.619,355.698 236.728,356.321 236.728,357.059C236.728,357.764 236.619,358.366 236.398,358.868C236.177,359.373 235.881,359.787 235.503,360.117C235.125,360.447 234.692,360.683 234.196,360.834C233.7,360.982 233.18,361.058 232.629,361.058C232.049,361.058 231.504,360.982 230.993,360.834C230.482,360.683 230.037,360.444 229.662,360.117C229.287,359.784 228.991,359.373 228.779,358.868C228.567,358.369 228.461,357.764 228.461,357.059Z" style="fill-rule:nonzero;"/>
    </g>
    <ellipse cx="231.438" cy="116.901" rx="29.611" ry="29.946" style="fill:rgb(0,3,0);"/>
    <path d="M244.557,103.823L226.19,122.397L218.319,114.247L213.447,118.986L226.19,131.874L231.063,127.136L249.429,108.561L244.557,103.823Z" style="fill:white;fill-rule:nonzero;"/>
</svg>
