<?xml version="1.0" standalone="no"?>
<!DOCTYPE svg PUBLIC "-//W3C//DTD SVG 20010904//EN"
 "http://www.w3.org/TR/2001/REC-SVG-20010904/DTD/svg10.dtd">
<svg version="1.0" xmlns="http://www.w3.org/2000/svg"
 width="700.000000pt" height="700.000000pt" viewBox="0 0 700.000000 700.000000"
 preserveAspectRatio="xMidYMid meet">
<metadata>
Created by potrace 1.11, written by Peter Selinger 2001-2013
</metadata>
<g transform="translate(0.000000,700.000000) scale(0.100000,-0.100000)"
fill="#000000" stroke="none">
<path d="M3245 6904 c-405 -39 -713 -112 -1034 -244 -584 -240 -1077 -624
-1458 -1137 -123 -166 -213 -314 -313 -518 -171 -348 -270 -674 -327 -1075
-25 -177 -25 -681 0 -860 91 -649 331 -1210 733 -1715 113 -141 368 -396 509
-509 410 -327 861 -548 1355 -665 292 -69 445 -86 790 -86 298 0 365 5 595 46
568 100 1087 336 1550 706 142 113 397 367 509 508 437 549 686 1172 747 1870
14 165 6 551 -16 710 -79 584 -299 1132 -640 1591 -560 754 -1367 1229 -2310
1359 -114 16 -588 29 -690 19z m590 -114 c311 -68 581 -210 803 -424 159 -154
256 -283 351 -474 164 -326 212 -706 135 -1080 -77 -374 -325 -755 -645 -988
-278 -204 -639 -324 -975 -324 -350 0 -694 -113 -986 -325 -112 -82 -289 -260
-370 -375 -83 -116 -188 -323 -228 -448 -62 -193 -74 -276 -74 -512 0 -187 3
-229 22 -320 77 -352 235 -637 488 -880 241 -230 507 -367 864 -444 76 -16
-165 9 -284 29 -834 145 -1591 613 -2103 1301 -356 480 -568 1017 -638 1619
-30 260 -17 649 31 930 57 334 192 716 361 1019 566 1018 1621 1679 2753 1725
200 8 369 -2 495 -29z m-143 -4563 c269 -132 327 -485 116 -696 -98 -98 -244
-146 -374 -124 -240 41 -405 267 -365 498 29 167 134 290 296 348 38 13 74 17
151 15 93 -3 106 -6 176 -41z m-384 -2044 c-10 -2 -28 -2 -40 0 -13 2 -5 4 17
4 22 1 32 -1 23 -4z"/>
<path d="M3336 5669 c-205 -71 -334 -287 -297 -498 64 -357 494 -499 747 -246
283 283 87 766 -309 765 -56 -1 -101 -7 -141 -21z m402 -301 c-2 -4 -79 -84
-172 -178 l-169 -172 -96 96 -96 96 38 37 37 38 60 -60 60 -60 137 137 137
138 33 -32 c18 -18 32 -36 31 -40z"/>
<path d="M3436 1993 c4 -60 10 -128 13 -153 6 -45 6 -45 46 -45 l40 0 6 75 c4
41 9 110 13 153 l6 77 -65 0 -66 0 7 -107z"/>
<path d="M3470 1693 c-22 -8 -40 -34 -40 -58 0 -52 84 -76 114 -33 22 31 20
45 -9 73 -24 25 -36 28 -65 18z"/>
</g>
</svg>
